PathFileType	4	(X/Y/Z)	C:\Data Capture\Research\archery\Archery pilot8.trc
DataRate	CameraRate	NumFrames	NumMarkers	Units	OrigDataRate	OrigDataStartFrame	OrigNumFrames
100.00	100.00	       49	3	mm	100.00	1	       800
Frame#	Time	Marker 1			Marker 2			Marker 3			
		X1	Y1	Z1	X2	Y2	Z2	X3	Y3	Z3	

1	0.000	33.03107	476.46384	1319.62354	120.80072	481.24228	1271.96826	54.73431	483.01993	1179.94739	
2	0.010	32.89947	476.52548	1319.66943	120.76906	481.31137	1272.02673	54.66556	483.11407	1179.98462	
3	0.020	32.78630	476.59286	1319.71985	120.73055	481.38965	1272.08093	54.60519	483.20508	1180.02380	
4	0.030	32.70618	476.66888	1319.77673	120.67941	481.48380	1272.12573	54.55845	483.29349	1180.06531	
5	0.040	32.66566	476.75342	1319.83899	120.61204	481.59671	1272.15710	54.52715	483.38425	1180.10999	
6	0.050	32.66179	476.84427	1319.90479	120.52792	481.72684	1272.17468	54.51057	483.48523	1180.15955	
7	0.060	32.68433	476.93735	1319.97266	120.42942	481.86884	1272.18152	54.50505	483.60544	1180.21729	
8	0.070	32.71988	477.02597	1320.04236	120.32124	482.01566	1272.18372	54.50316	483.75290	1180.28552	
9	0.080	32.75586	477.10190	1320.11316	120.20991	482.16064	1272.19006	54.49571	483.93158	1180.36450	
10	0.090	32.78358	477.15863	1320.18408	120.10372	482.29797	1272.21252	54.47685	484.13794	1180.45276	
11	0.100	32.79922	477.19492	1320.25464	120.01152	482.42279	1272.26184	54.44865	484.35931	1180.54810	
12	0.110	32.80262	477.21640	1320.32556	119.93958	482.53174	1272.34607	54.42007	484.57605	1180.64734	
13	0.120	32.79522	477.23438	1320.39868	119.88911	482.62369	1272.46826	54.40084	484.76691	1180.74609	
14	0.130	32.77770	477.26306	1320.47546	119.85703	482.70065	1272.62561	54.39609	484.91446	1180.83948	
15	0.140	32.74868	477.31613	1320.55591	119.83876	482.76797	1272.81116	54.40561	485.00827	1180.92407	
16	0.150	32.70535	477.40427	1320.63879	119.83025	482.83398	1273.01550	54.42597	485.04721	1180.99878	
17	0.160	32.64527	477.53268	1320.72412	119.82835	482.90793	1273.22778	54.45229	485.03934	1181.06384	
18	0.170	32.56893	477.69824	1320.81335	119.82939	482.99564	1273.43628	54.47860	484.99924	1181.12000	
19	0.180	32.48186	477.88782	1320.90845	119.82742	483.09616	1273.63049	54.49866	484.94501	1181.16833	
20	0.190	32.39337	478.08124	1321.00952	119.81606	483.20340	1273.80444	54.50835	484.89526	1181.21155	
21	0.200	32.31238	478.25806	1321.11414	119.79263	483.30966	1273.95850	54.50825	484.86545	1181.25403	
22	0.210	32.24417	478.40359	1321.21851	119.76022	483.40662	1274.09705	54.50381	484.86401	1181.30103	
23	0.220	32.18905	478.51266	1321.31885	119.72745	483.48572	1274.22546	54.50213	484.88992	1181.35608	
24	0.230	32.14251	478.59225	1321.41028	119.70563	483.54077	1274.34863	54.50752	484.93060	1181.41919	
25	0.240	32.09662	478.66055	1321.48718	119.70350	483.57080	1274.46997	54.51898	484.96286	1181.48572	
26	0.250	32.04182	478.74152	1321.54333	119.72331	483.57935	1274.59033	54.53275	484.95944	1181.54858	
27	0.260	31.96834	478.85638	1321.57483	119.75973	483.57166	1274.70715	54.54752	484.89954	1181.60413	
28	0.270	31.86867	479.01685	1321.58289	119.80124	483.55316	1274.81567	54.56650	484.77789	1181.65515	
29	0.280	31.73983	479.22305	1321.57410	119.83376	483.53018	1274.91125	54.59495	484.60541	1181.70923	
30	0.290	31.58390	479.46512	1321.55847	119.84544	483.50974	1274.99170	54.63717	484.40207	1181.77429	
31	0.300	31.40775	479.72583	1321.54639	119.83050	483.49652	1275.05786	54.69503	484.19028	1181.85486	
32	0.310	31.22309	479.98355	1321.54565	119.79047	483.49097	1275.11304	54.76663	483.99286	1181.95032	
33	0.320	31.04479	480.21674	1321.55884	119.73194	483.49011	1275.16040	54.84553	483.83282	1182.05530	
34	0.330	30.88653	480.40848	1321.58533	119.66206	483.48965	1275.20215	54.92238	483.73029	1182.16064	
35	0.340	30.75639	480.55038	1321.62195	119.58553	483.48663	1275.23926	54.98869	483.69553	1182.25623	
36	0.350	30.65573	480.64532	1321.66455	119.50468	483.48218	1275.27197	55.03967	483.72336	1182.33423	
37	0.360	30.58052	480.70792	1321.70801	119.42094	483.48276	1275.29993	55.07445	483.79462	1182.38989	
38	0.370	30.52346	480.76117	1321.74756	119.33550	483.49994	1275.32202	55.09420	483.88431	1182.42200	
39	0.380	30.47573	480.83066	1321.77966	119.24923	483.54700	1275.33752	55.09959	483.97168	1182.43188	
40	0.390	30.42820	480.93744	1321.80237	119.16205	483.63504	1275.34644	55.08961	484.04782	1182.42273	
41	0.400	30.37333	481.09250	1321.81482	119.07291	483.77020	1275.34924	55.06332	484.11761	1182.39795	
42	0.410	30.30775	481.29443	1321.81702	118.98122	483.95261	1275.34778	55.02180	484.19730	1182.36194	
43	0.420	30.23361	481.53046	1321.81055	118.88849	484.17661	1275.34460	54.96761	484.30960	1182.32080	
44	0.430	30.15654	481.77997	1321.79834	118.79833	484.43182	1275.34241	54.90315	484.47775	1182.28235	
45	0.440	30.08206	482.02090	1321.78394	118.71634	484.70428	1275.34351	54.82935	484.71829	1182.25476	
46	0.450	30.01420	482.23712	1321.76929	118.65013	484.97696	1275.34949	54.74435	485.03329	1182.24170	
47	0.460	29.95571	482.42206	1321.75427	118.60596	485.23248	1275.35864	54.64403	485.40567	1182.23828	
48	0.470	29.90790	482.57727	1321.73621	118.58263	485.45898	1275.36523	54.52604	485.80484	1182.23328	
49	0.480	29.87033	482.70834	1321.71216	118.56993	485.65448	1275.36243	54.39185	486.19885	1182.21484	
